<!DOCTYPE svg PUBLIC "-//W3C//DTD SVG 1.1//EN" "http://www.w3.org/Graphics/SVG/1.1/DTD/svg11.dtd">
<!-- Uploaded to: SVG Repo, www.svgrepo.com, Transformed by: SVG Repo Mixer Tools -->
<svg fill="#e8e8e8" width="800px" height="800px" viewBox="0 0 64 64" data-name="Layer 1" id="Layer_1" xmlns="http://www.w3.org/2000/svg" stroke="#e8e8e8">
<g id="SVGRepo_bgCarrier" stroke-width="0"/>
<g id="SVGRepo_tracerCarrier" stroke-linecap="round" stroke-linejoin="round"/>
<g id="SVGRepo_iconCarrier">
<path d="M18.75,51.53a7,7,0,0,1-7-7V13.75a2,2,0,0,1,4,0V44.54a3,3,0,0,0,6,0V22.66a10.92,10.92,0,0,1,21.83,0v4.88a2,2,0,0,1-4,0V22.66a6.92,6.92,0,0,0-13.83,0V44.54A7,7,0,0,1,18.75,51.53Z"/>
<path d="M49,42.6H34.17a3.28,3.28,0,0,1-3.28-3.28V32.54a6.83,6.83,0,0,1,6.82-6.82h7.72a6.83,6.83,0,0,1,6.82,6.82v6.78A3.28,3.28,0,0,1,49,42.6Zm-14.08-4H48.25V32.54a2.82,2.82,0,0,0-2.82-2.82H37.71a2.82,2.82,0,0,0-2.82,2.82Z"/>
<path d="M46.06,52.25h-9A3.28,3.28,0,0,1,33.8,49V40.6a2,2,0,0,1,2-2H47.33a2,2,0,0,1,2,2V49A3.28,3.28,0,0,1,46.06,52.25Zm-8.26-4h7.53V42.6H37.8Z"/>
</g>
</svg>